<?xml version="1.0" encoding="UTF-8"?> <svg xmlns="http://www.w3.org/2000/svg" width="51" height="36" viewBox="0 0 51 36" fill="none"> <path d="M18.6441 0H21.6441L3.32202 36H0.322021L18.6441 0Z" fill="#E31E24"></path> <path d="M37.0008 18.5C37.0008 16.5671 38.5674 14.9997 40.5004 14.9997C42.4334 14.9997 44.0008 16.5671 44.0008 18.5C44.0008 20.4329 42.4334 22.0003 40.5004 22.0003C38.5674 22.0003 37.0008 20.4329 37.0008 18.5ZM35.1086 18.5C35.1086 21.4778 37.5225 23.8916 40.5004 23.8916C43.4783 23.8916 45.8923 21.4778 45.8923 18.5C45.8923 15.5222 43.4783 13.1084 40.5004 13.1084C37.5225 13.1084 35.1086 15.5222 35.1086 18.5ZM44.8457 12.8946C44.8456 13.1438 44.9194 13.3874 45.0577 13.5947C45.1961 13.802 45.3928 13.9635 45.623 14.059C45.8533 14.1545 46.1066 14.1795 46.351 14.131C46.5955 14.0825 46.8201 13.9626 46.9963 13.7864C47.1726 13.6103 47.2927 13.3858 47.3415 13.1414C47.3902 12.897 47.3653 12.6437 47.27 12.4134C47.1748 12.1831 47.0133 11.9863 46.8062 11.8477C46.599 11.7092 46.3554 11.6352 46.1062 11.6351H46.1057C45.7717 11.6353 45.4513 11.768 45.2151 12.0041C44.9788 12.2403 44.846 12.5606 44.8457 12.8946ZM36.2583 27.0467C35.2345 27.0001 34.6781 26.8296 34.3083 26.6855C33.818 26.4947 33.4682 26.2674 33.1005 25.9001C32.7327 25.5329 32.5051 25.1835 32.315 24.6932C32.1709 24.3236 32.0004 23.7671 31.9538 22.7433C31.9029 21.6366 31.8928 21.3041 31.8928 18.5001C31.8928 15.6961 31.9038 15.3645 31.9538 14.2568C32.0005 13.2331 32.1722 12.6776 32.315 12.3069C32.5059 11.8167 32.7332 11.4669 33.1005 11.0992C33.4677 10.7314 33.8172 10.5038 34.3083 10.3138C34.6779 10.1696 35.2345 9.99912 36.2583 9.95258C37.3651 9.90168 37.6976 9.89151 40.5004 9.89151C43.3033 9.89151 43.6361 9.90252 44.7439 9.95258C45.7676 9.9992 46.3231 10.171 46.6938 10.3138C47.1841 10.5038 47.5339 10.7319 47.9016 11.0992C48.2694 11.4664 48.4962 11.8167 48.6871 12.3069C48.8312 12.6765 49.0017 13.2331 49.0483 14.2568C49.0992 15.3645 49.1093 15.6961 49.1093 18.5001C49.1093 21.3041 49.0992 21.6356 49.0483 22.7433C49.0016 23.7671 48.8303 24.3235 48.6871 24.6932C48.4962 25.1835 48.2689 25.5332 47.9016 25.9001C47.5344 26.2671 47.1841 26.4947 46.6938 26.6855C46.3242 26.8297 45.7676 27.0002 44.7439 27.0467C43.637 27.0977 43.3045 27.1078 40.5004 27.1078C37.6963 27.1078 37.3647 27.0977 36.2583 27.0467ZM36.1713 8.06359C35.0535 8.11449 34.2896 8.29173 33.6226 8.55129C32.9317 8.81934 32.3469 9.17894 31.7625 9.7624C31.1781 10.3459 30.8194 10.9316 30.5513 11.6224C30.2917 12.2899 30.1145 13.0533 30.0636 14.1711C30.0118 15.2906 30 15.6485 30 18.5C30 21.3515 30.0118 21.7094 30.0636 22.8289C30.1145 23.9468 30.2917 24.7101 30.5513 25.3776C30.8194 26.068 31.1781 26.6544 31.7625 27.2376C32.3468 27.8208 32.9317 28.1799 33.6226 28.4487C34.2909 28.7083 35.0535 28.8855 36.1713 28.9364C37.2915 28.9873 37.6488 29 40.5004 29C43.352 29 43.7099 28.9882 44.8295 28.9364C45.9474 28.8855 46.7108 28.7083 47.3783 28.4487C48.0687 28.1799 48.654 27.8211 49.2384 27.2376C49.8228 26.6541 50.1807 26.068 50.4495 25.3776C50.7091 24.7101 50.8872 23.9467 50.9373 22.8289C50.9882 21.7085 51 21.3515 51 18.5C51 15.6485 50.9882 15.2906 50.9373 14.1711C50.8863 13.0532 50.7091 12.2895 50.4495 11.6224C50.1807 10.932 49.8219 10.3468 49.2384 9.7624C48.6549 9.17802 48.0687 8.81934 47.3791 8.55129C46.7108 8.29173 45.9474 8.11365 44.8304 8.06359C43.7108 8.01268 43.3528 8 40.5013 8C37.6497 8 37.2915 8.01184 36.1713 8.06359Z" fill="#E31E24"></path> </svg> 