<?xml version="1.0" encoding="UTF-8"?> <svg xmlns="http://www.w3.org/2000/svg" width="186" height="56" viewBox="0 0 186 56" fill="none"> <path d="M2.91669 56L9.42564 44.5651C8.64446 43.9442 7.90139 43.2758 7.20058 42.5649C2.75228 38.053 0 31.819 0 24.9342C0 18.0499 2.75228 11.8159 7.20058 7.30354C11.6493 2.79164 17.7955 0 24.5827 0C31.3704 0 37.5166 2.79164 41.9649 7.30354C46.4132 11.8159 49.1654 18.0499 49.1654 24.9342C49.1654 31.819 46.4136 38.053 41.9649 42.5649C37.9134 46.6744 32.4543 49.3561 26.3848 49.8018V42.762C30.5442 42.3343 34.2775 40.4441 37.0752 37.6058C40.2721 34.3633 42.2496 29.8831 42.2496 24.9347C42.2496 19.9859 40.2721 15.5056 37.0752 12.2636C33.8784 9.02147 29.4613 7.0152 24.5827 7.0152C19.7036 7.0152 15.2866 9.021 12.0902 12.2636C8.89383 15.5056 6.91584 19.9863 6.91584 24.9347C6.91584 29.8835 8.89337 34.3638 12.0902 37.6058C12.3621 37.8816 12.6427 38.148 12.932 38.4056L20.5996 24.9342H28.5662L16.9812 45.2872L15.3982 48.0685L10.8833 56H2.91669Z" fill="#E31E24"></path> <path d="M67.5593 16.5639C69.0459 16.5639 70.1518 16.9635 70.8774 17.7629C71.6026 18.5622 71.9654 19.7337 71.9654 21.2784V23.7579C71.9654 25.3021 71.6026 26.4736 70.8774 27.2735C70.1518 28.0728 69.0459 28.4725 67.5593 28.4725H66.1623V35.6395H63.207V16.5643H67.5593V16.5639ZM66.1623 19.2889V25.7474H67.5593C68.025 25.7474 68.3832 25.6203 68.634 25.3659C68.8847 25.1116 69.0101 24.6393 69.0101 23.9489V21.0874C69.0101 20.3971 68.8847 19.9247 68.634 19.6704C68.3832 19.4161 68.025 19.2889 67.5593 19.2889H66.1623ZM89.3269 35.6391H86.3449L85.8347 32.178H82.2076L81.6973 35.6391H78.9836L81.9926 16.5639H86.3183L89.3273 35.6391H89.3269ZM82.5832 29.5895H85.431L84.0069 19.9429L82.5832 29.5895ZM97.1235 16.5639H100.079V35.6391H97.1235V16.5639ZM111.288 21.8229V35.6391H108.628V16.5639H112.336L115.371 27.982V16.5639H118.004V35.6391H114.969L111.288 21.8229ZM135.124 27.3955V31.061C135.124 32.6047 134.752 33.7907 134.009 34.6171C133.266 35.4434 132.168 35.8566 130.718 35.8566C129.267 35.8566 128.17 35.4434 127.427 34.6171C126.684 33.7902 126.312 32.6047 126.312 31.061V21.1419C126.312 19.5977 126.683 18.4122 127.427 17.5859C128.17 16.759 129.267 16.3459 130.718 16.3459C132.168 16.3459 133.265 16.7595 134.009 17.5859C134.752 18.4122 135.124 19.5982 135.124 21.1419V24.807H132.33V20.9509C132.33 20.2606 132.191 19.7747 131.913 19.4929C131.636 19.2116 131.264 19.0709 130.798 19.0709C130.332 19.0709 129.961 19.2116 129.683 19.4929C129.406 19.7743 129.267 20.2606 129.267 20.9509V31.2515C129.267 31.9419 129.406 32.4235 129.683 32.696C129.961 32.9685 130.332 33.105 130.798 33.105C131.264 33.105 131.636 32.9685 131.913 32.696C132.19 32.4235 132.33 31.9419 132.33 31.2515V27.3955H135.124ZM152.915 35.6391H149.933L149.423 32.178H145.796L145.286 35.6391H142.572L145.581 16.5639H149.906L152.915 35.6391H152.915ZM146.171 29.5895H149.019L147.595 19.9429L146.171 29.5895ZM165.172 32.1235L167.429 16.5639H170.142L167.241 35.6391H162.835L159.933 16.5639H162.915L165.172 32.1235ZM180.894 24.6025H184.951V27.3275H180.894V32.914H185.999V35.6391H177.939V16.5639H185.999V19.2889H180.894V24.6029V24.6025Z" fill="white"></path> </svg> 